<svg xmlns="http://www.w3.org/2000/svg" width="24" height="24" viewBox="0 0 24 24">
  <g id="Group_8345" data-name="Group 8345" transform="translate(24) rotate(90)">
    <circle id="Ellipse_207" data-name="Ellipse 207" cx="12" cy="12" r="12" transform="translate(0 24) rotate(-90)" fill="#ebf6fa"/>
    <path id="Union_4" data-name="Union 4" d="M7090.577-5610.243,7087-5613.82l-3.578,3.577a.836.836,0,0,1-.588.244.833.833,0,0,1-.589-.244.833.833,0,0,1,0-1.18l3.577-3.577-3.577-3.577a.832.832,0,0,1,0-1.178.83.83,0,0,1,1.178,0l3.578,3.577,3.577-3.577a.832.832,0,0,1,1.179,0,.833.833,0,0,1,0,1.178l-3.578,3.577,3.578,3.577a.835.835,0,0,1,0,1.18.837.837,0,0,1-.589.244A.838.838,0,0,1,7090.577-5610.243Z" transform="translate(-7075 5627)" fill="#6d747f"/>
  </g>
</svg>
